<svg width="229" height="82" viewBox="0 0 229 82" fill="none" xmlns="http://www.w3.org/2000/svg">
<path d="M112.71 53.7349C110.964 53.7349 109.392 53.4356 107.996 52.8369C106.599 52.2133 105.501 51.3403 104.703 50.2178C103.905 49.0953 103.506 47.7858 103.506 46.2891H108.07C108.17 47.4116 108.607 48.3345 109.38 49.0579C110.178 49.7813 111.288 50.143 112.71 50.143C114.182 50.143 115.329 49.7938 116.152 49.0953C116.975 48.372 117.387 47.449 117.387 46.3265C117.387 45.4535 117.125 44.7426 116.601 44.1938C116.102 43.645 115.466 43.221 114.693 42.9217C113.945 42.6223 112.897 42.2981 111.55 41.9488C109.854 41.4999 108.469 41.0509 107.397 40.6019C106.349 40.1279 105.451 39.4046 104.703 38.4317C103.955 37.4589 103.58 36.1618 103.58 34.5404C103.58 33.0438 103.955 31.7342 104.703 30.6118C105.451 29.4893 106.499 28.6287 107.846 28.03C109.193 27.4314 110.752 27.1321 112.523 27.1321C115.042 27.1321 117.1 27.7681 118.697 29.0403C120.318 30.2875 121.216 32.0086 121.391 34.2037H116.676C116.601 33.2558 116.152 32.4451 115.329 31.7717C114.506 31.0982 113.421 30.7614 112.074 30.7614C110.852 30.7614 109.854 31.0732 109.081 31.6968C108.307 32.3204 107.921 33.2184 107.921 34.3908C107.921 35.189 108.158 35.85 108.632 36.3738C109.13 36.8727 109.754 37.2718 110.502 37.5712C111.251 37.8705 112.273 38.1948 113.571 38.544C115.292 39.0179 116.689 39.4919 117.761 39.9658C118.859 40.4397 119.782 41.1756 120.53 42.1733C121.303 43.1462 121.69 44.4557 121.69 46.102C121.69 47.4241 121.328 48.6713 120.605 49.8437C119.906 51.016 118.871 51.9639 117.499 52.6873C116.152 53.3857 114.556 53.7349 112.71 53.7349ZM125.301 43.0713C125.301 41.001 125.725 39.1676 126.573 37.5712C127.446 35.9747 128.619 34.74 130.09 33.867C131.587 32.969 133.233 32.52 135.029 32.52C136.651 32.52 138.06 32.8443 139.257 33.4928C140.48 34.1164 141.452 34.9021 142.176 35.85V32.8567H146.479V53.473H142.176V50.4049C141.452 51.3777 140.467 52.1884 139.22 52.8369C137.973 53.4855 136.551 53.8098 134.954 53.8098C133.183 53.8098 131.562 53.3608 130.09 52.4628C128.619 51.5399 127.446 50.2677 126.573 48.6463C125.725 47 125.301 45.1417 125.301 43.0713ZM142.176 43.1462C142.176 41.7244 141.876 40.4896 141.278 39.442C140.704 38.3943 139.943 37.5961 138.995 37.0473C138.048 36.4986 137.025 36.2242 135.927 36.2242C134.83 36.2242 133.807 36.4986 132.859 37.0473C131.911 37.5712 131.138 38.3569 130.539 39.4045C129.966 40.4273 129.679 41.6495 129.679 43.0713C129.679 44.4931 129.966 45.7404 130.539 46.8129C131.138 47.8855 131.911 48.7087 132.859 49.2824C133.832 49.8312 134.855 50.1056 135.927 50.1056C137.025 50.1056 138.048 49.8312 138.995 49.2824C139.943 48.7336 140.704 47.9354 141.278 46.8878C141.876 45.8152 142.176 44.568 142.176 43.1462ZM160.051 49.6566L165.888 32.8567H170.415L162.558 53.473H157.469L149.649 32.8567H154.214L160.051 49.6566ZM192.534 42.6598C192.534 43.433 192.485 44.1315 192.385 44.7551H176.633C176.757 46.4014 177.368 47.7234 178.466 48.7212C179.563 49.7189 180.91 50.2178 182.507 50.2178C184.802 50.2178 186.423 49.2575 187.371 47.3368H191.973C191.35 49.2325 190.215 50.7915 188.568 52.0138C186.947 53.2111 184.926 53.8098 182.507 53.8098C180.536 53.8098 178.765 53.3732 177.194 52.5002C175.647 51.6022 174.425 50.355 173.527 48.7586C172.654 47.1372 172.217 45.2664 172.217 43.1462C172.217 41.0259 172.641 39.1676 173.49 37.5712C174.363 35.9498 175.572 34.7026 177.119 33.8295C178.69 32.9565 180.486 32.52 182.507 32.52C184.453 32.52 186.186 32.944 187.708 33.7921C189.229 34.6402 190.414 35.8375 191.262 37.3841C192.11 38.9057 192.534 40.6642 192.534 42.6598ZM188.082 41.3128C188.057 39.7413 187.496 38.4816 186.398 37.5337C185.301 36.5859 183.941 36.1119 182.32 36.1119C180.848 36.1119 179.588 36.5859 178.541 37.5337C177.493 38.4567 176.869 39.7164 176.67 41.3128H188.082ZM208.622 30.1253C207.848 30.1253 207.2 29.8634 206.676 29.3396C206.152 28.8158 205.89 28.1672 205.89 27.394C205.89 26.6207 206.152 25.9722 206.676 25.4483C207.2 24.9245 207.848 24.6626 208.622 24.6626C209.37 24.6626 210.006 24.9245 210.53 25.4483C211.054 25.9722 211.316 26.6207 211.316 27.394C211.316 28.1672 211.054 28.8158 210.53 29.3396C210.006 29.8634 209.37 30.1253 208.622 30.1253ZM210.717 32.8567V53.473H206.451V32.8567H210.717ZM221.293 36.3364V47.7484C221.293 48.5216 221.468 49.0829 221.817 49.4321C222.191 49.7564 222.815 49.9185 223.688 49.9185H226.307V53.473H222.94C221.019 53.473 219.547 53.024 218.525 52.126C217.502 51.2281 216.991 49.7688 216.991 47.7484V36.3364H214.558V32.8567H216.991V27.7307H221.293V32.8567H226.307V36.3364H221.293Z" fill="white"/>
<rect opacity="0.2" width="74.8323" height="74.8323" rx="37.4161" fill="white"/>
<rect x="32.7393" y="31.1801" width="49.8882" height="49.8882" rx="24.9441" fill="white"/>
</svg>
